Coordinates
version=1
nRows=29
nColumns=22
inDegrees=yes

Units are S.I. units (second, meters, Newtons, ...)
If the header above contains a line with 'inDegrees', this indicates whether rotational values are in degrees (yes) or radians (no).

endheader
time	pelvis_tilt	pelvis_list	pelvis_rotation	pelvis_tx	pelvis_ty	pelvis_tz	hip_flexion_r	hip_adduction_r	hip_rotation_r	knee_angle_r	ankle_angle_r	subtalar_angle_r	hip_flexion_l	hip_adduction_l	hip_rotation_l	knee_angle_l	ankle_angle_l	subtalar_angle_l	lumbar_extension	lumbar_bending	lumbar_rotation
      1.31000000	    -16.89645895	      1.00021940	    -33.72076296	     -0.81379645	      0.86888255	     -0.33495772	     18.56408843	      4.06115299	     -1.45326703	    -30.73733374	     12.87293788	      5.71873229	      7.31555890	     -6.07795070	      2.38022111	    -16.75363843	     21.06223457	      2.42832398	      3.56079547	      6.38828465	      8.82259314
      1.32000000	    -16.83783019	      0.86023737	    -33.73152718	     -0.81184559	      0.86904779	     -0.33360999	     19.90533986	      4.12984561	     -1.59654403	    -33.57873157	     12.24774872	      5.74693533	      7.02453108	     -6.17608196	      2.48016380	    -16.78118099	     20.98206731	      2.43024140	      3.21792529	      6.43823180	      8.54826439
      1.33000000	    -16.75841179	      0.71229851	    -33.72555456	     -0.80978891	      0.86919115	     -0.33218968	     21.28043277	      4.17748296	     -1.79837515	    -36.46907169	     11.60585587	      5.68085352	      6.69021423	     -6.26866287	      2.56042475	    -16.78167190	     20.91760911	      2.43406287	      2.85777702	      6.48253862	      8.23684803
      1.34000000	    -16.63438568	      0.56034572	    -33.69808290	     -0.80761030	      0.86933089	     -0.33073828	     22.65358522	      4.18004633	     -2.04876035	    -39.35775704	     11.01544422	      5.49677199	      6.29686295	     -6.33288836	      2.64052905	    -16.75967888	     20.84979634	      2.44230161	      2.45462997	      6.50768468	      7.91260739
      1.35000000	    -16.49053508	      0.41108252	    -33.65380024	     -0.80530411	      0.86942238	     -0.32919169	     24.03069135	      4.14398475	     -2.36289060	    -42.19439369	     10.52719297	      5.15605077	      5.86297178	     -6.38469138	      2.70406093	    -16.70688865	     20.79422665	      2.43918092	      2.04490109	      6.51731210	      7.55990225
      1.36000000	    -16.31554842	      0.25899427	    -33.58754213	     -0.80284138	      0.86949640	     -0.32758686	     25.37383616	      4.05974310	     -2.73894163	    -44.91170327	     10.18136267	      4.66671913	      5.37650288	     -6.41712677	      2.76869654	    -16.62522928	     20.73269006	      2.42874873	      1.61255015	      6.51641914	      7.19440484
      1.37000000	    -16.15695688	      0.09284471	    -33.51022507	     -0.80028142	      0.86952575	     -0.32587892	     26.69735734	      3.97721603	     -3.17086644	    -47.43629109	      9.95157192	      3.79245214	      4.89136928	     -6.47758945	      2.80218950	    -16.55058899	     20.71264907	      2.36568174	      1.19373635	      6.53961696	      6.81880092
      1.38000000	    -15.96167958	     -0.05148511	    -33.40675002	     -0.79753906	      0.86955885	     -0.32412914	     27.96106080	      3.80791710	     -3.66200936	    -49.73645151	      9.90887474	      3.00210531	      4.35134214	     -6.49151721	      2.86173897	    -16.42293485	     20.63645173	      2.33666430	      0.76486298	      6.52870762	      6.42475790
      1.39000000	    -15.78165170	     -0.18161447	    -33.28099735	     -0.79468685	      0.86956368	     -0.32232566	     29.19191437	      3.60106505	     -4.20025116	    -51.75181972	      9.99476011	      2.15258926	      3.82523150	     -6.50311630	      2.93151867	    -16.28669197	     20.54460253	      2.30338160	      0.36432500	      6.51758197	      6.02140474
      1.40000000	    -15.62256567	     -0.29646700	    -33.13484130	     -0.79173207	      0.86955818	     -0.32047420	     30.38211270	      3.36560868	     -4.77037366	    -53.44079095	     10.17367457	      1.30309505	      3.32160738	     -6.51454250	      3.01619424	    -16.14616886	     20.42970296	      2.27224045	     -0.00259154	      6.51059878	      5.61451502
      1.41000000	    -15.49188360	     -0.39874337	    -32.96808025	     -0.78867157	      0.86955192	     -0.31856812	     31.52373360	      3.11976984	     -5.35440044	    -54.76761088	     10.40602024	      0.48277003	      2.84524006	     -6.53391361	      3.11347245	    -15.99898134	     20.28914858	      2.24514143	     -0.33062536	      6.51533249	      5.19652898
      1.42000000	    -15.38652758	     -0.50188106	    -32.78095600	     -0.78550252	      0.86957257	     -0.31659023	     32.59256769	      2.88380007	     -5.94616925	    -55.70541507	     10.65786510	     -0.22184571	      2.38566712	     -6.57215512	      3.24726812	    -15.84747489	     20.12114954	      2.23318735	     -0.63046789	      6.53767226	      4.78920541
      1.43000000	    -15.29828978	     -0.61610249	    -32.57968091	     -0.78222526	      0.86963047	     -0.31454365	     33.57197935	      2.67925566	     -6.52417109	    -56.24211492	     10.88086908	     -0.87072299	      1.94036198	     -6.63523769	      3.37207438	    -15.71289039	     19.97247929	      2.22737762	     -0.91971907	      6.58687165	      4.40091980
      1.44000000	    -15.21220167	     -0.74423822	    -32.35826397	     -0.77881097	      0.86974078	     -0.31239926	     34.43481890	      2.50642464	     -7.08216330	    -56.37162942	     11.08780346	     -1.21783445	      1.48455078	     -6.71719432	      3.52451836	    -15.57958708	     19.80970023	      2.24544537	     -1.20774124	      6.65000479	      4.02510428
      1.45000000	    -15.14681911	     -0.89743480	    -32.14275708	     -0.77527613	      0.86989837	     -0.31007823	     35.17945011	      2.44044368	     -7.55217481	    -56.07399243	     11.24977664	     -1.68570734	      1.01798071	     -6.84767845	      3.61903241	    -15.43614536	     19.61062902	      2.25516814	     -1.48332634	      6.75116114	      3.66319727
      1.46000000	    -15.07419724	     -1.04416766	    -31.91764410	     -0.77159834	      0.87006358	     -0.30765545	     35.81845540	      2.40505171	     -7.96202324	    -55.40265937	     11.31633955	     -1.76683970	      0.53603911	     -6.96842402	      3.75935056	    -15.28683712	     19.41826064	      2.27539240	     -1.75331121	      6.84427812	      3.32246719
      1.47000000	    -14.98883780	     -1.21986615	    -31.69653612	     -0.76779229	      0.87027092	     -0.30507384	     36.30870689	      2.45443616	     -8.28962423	    -54.34042275	     11.30309358	     -1.74764784	      0.01491031	     -7.11820444	      3.88150676	    -15.13975283	     19.21454458	      2.29499722	     -2.04782927	      6.95659216	      3.01339263
      1.48000000	    -14.88411992	     -1.40816888	    -31.49102825	     -0.76386930	      0.87048749	     -0.30232792	     36.66114458	      2.56906016	     -8.52989432	    -52.92248758	     11.20356143	     -1.55771789	     -0.54783182	     -7.27729398	      3.97261533	    -14.98924611	     19.00241611	      2.32089085	     -2.36485004	      7.06902065	      2.74528790
      1.49000000	    -14.76015488	     -1.58997887	    -31.30537879	     -0.75987271	      0.87068047	     -0.29943251	     36.89394318	      2.73499504	     -8.65831316	    -51.17940534	     11.01193990	     -1.15954423	     -1.13569485	     -7.42761739	      4.03806160	    -14.84336608	     18.78553833	      2.35493154	     -2.69922234	      7.16231637	      2.51518278
      1.50000000	    -14.61828053	     -1.72133884	    -31.16187474	     -0.75582771	      0.87079105	     -0.29638809	     37.04458716	      2.91420228	     -8.65091782	    -49.15577980	     10.76348280	     -0.41295937	     -1.72935494	     -7.52400431	      4.06974543	    -14.70004540	     18.51571130	      2.41759893	     -3.02742063	      7.19540026	      2.35711221
      1.51000000	    -14.47910553	     -1.82061367	    -31.02806762	     -0.75175188	      0.87079259	     -0.29324360	     37.12164335	      3.10445537	     -8.56096362	    -46.87201033	     10.39625861	      0.36704389	     -2.30287613	     -7.59677797	      4.10969616	    -14.57355272	     18.27511171	      2.46534336	     -3.34216930	      7.19770387	      2.22434754
      1.52000000	    -14.34435512	     -1.89989107	    -30.92021241	     -0.74761379	      0.87068279	     -0.28997882	     37.11240455	      3.31407686	     -8.39521912	    -44.34324453	      9.94913638	      1.11431259	     -2.86885953	     -7.65643291	      4.12336884	    -14.46421037	     18.04745988	      2.50237694	     -3.64733107	      7.18757787	      2.13868061
      1.53000000	    -14.20156668	     -1.88080502	    -30.82285981	     -0.74340891	      0.87038529	     -0.28660971	     37.07789494	      3.45371424	     -8.12109101	    -41.65496859	      9.46714974	      2.15468330	     -3.41274758	     -7.62256037	      4.14171708	    -14.32531283	     17.78192213	      2.58403762	     -3.90265170	      7.07748935	      2.04836638
      1.54000000	    -14.06530603	     -1.84493579	    -30.72800514	     -0.73909525	      0.86994569	     -0.28313999	     36.96471506	      3.58645300	     -7.80354279	    -38.78830070	      8.94326085	      3.06046587	     -3.94494254	     -7.58048992	      4.15829035	    -14.20497297	     17.53980690	      2.65924186	     -4.14387561	      6.95906361	      1.98593824
      1.55000000	    -13.92983868	     -1.77305259	    -30.62257457	     -0.73464030	      0.86933998	     -0.27957056	     36.79194605	      3.68027262	     -7.44585857	    -35.79536906	      8.41765241	      3.91401056	     -4.46318019	     -7.51018670	      4.19439178	    -14.09442119	     17.31036936	      2.74901213	     -4.35922848	      6.80963879	      1.93892937
      1.56000000	    -13.80486855	     -1.64186100	    -30.49799790	     -0.73000206	      0.86851926	     -0.27591449	     36.60396532	      3.70466048	     -7.05384693	    -32.74115335	      7.89458142	      4.77730010	     -4.96034854	     -7.39520190	      4.24907381	    -13.96294138	     17.07474156	      2.86999265	     -4.51756136	      6.61951953	      1.84903025
      1.57000000	    -13.68034954	     -1.48577258	    -30.34853365	     -0.72517342	      0.86752042	     -0.27215250	     36.37526020	      3.68189398	     -6.65637362	    -29.64798783	      7.42028498	      5.48586919	     -5.45116721	     -7.26495758	      4.33840766	    -13.84180881	     16.85828772	      3.00254143	     -4.65184257	      6.40881914	      1.77036520
      1.58000000	    -13.57721362	     -1.30194753	    -30.18105343	     -0.72012022	      0.86630997	     -0.26827194	     36.14286563	      3.61820254	     -6.26637347	    -26.56433508	      6.99645497	      6.00723341	     -5.92659760	     -7.12877955	      4.41773555	    -13.71363274	     16.63724098	      3.13034926	     -4.73337203	      6.19553490	      1.66986672
      1.59000000	    -13.46987931	     -1.07460006	    -29.97537149	     -0.71484929	      0.86490478	     -0.26431003	     35.92159234	      3.47105557	     -5.91874271	    -23.56117692	      6.66503914	      6.52092896	     -6.40079705	     -6.95785296	      4.55935461	    -13.57051176	     16.41323071	      3.30364056	     -4.78227788	      5.94283357	      1.54788081
